<svg width="1156" height="98" viewBox="0 0 1156 98" fill="none" xmlns="http://www.w3.org/2000/svg">
<g clip-path="url(#clip0_10_944)">
<path fill-rule="evenodd" clip-rule="evenodd" d="M14.0001 29C19.5229 29 24.0001 33.4771 24.0001 39V29H34.0001C39.5229 29 44.0001 33.4771 44.0001 39C44.0001 44.5228 39.5229 49 34.0001 49C39.5229 49 44.0001 53.4772 44.0001 59C44.0001 61.7423 42.8962 64.2268 41.1086 66.0334L41.0712 66.0711L41.038 66.1041C39.231 67.8943 36.7447 69 34.0001 69C31.2742 69 28.803 67.9093 26.9991 66.1405C26.9757 66.1175 26.9523 66.0943 26.929 66.0711C26.9071 66.0492 26.8853 66.0272 26.8636 66.0051C25.0925 64.2009 24.0001 61.728 24.0001 59C24.0001 64.5228 19.5229 69 14.0001 69C8.47721 69 4.00006 64.5228 4.00006 59V49H14.0001C8.47721 49 4.00006 44.5228 4.00006 39C4.00006 33.4771 8.47721 29 14.0001 29ZM22.0001 39C22.0001 43.4183 18.4184 47 14.0001 47V31C18.4184 31 22.0001 34.5817 22.0001 39ZM42.0001 59C42.0001 54.5817 38.4184 51 34.0001 51C29.5818 51 26.0001 54.5817 26.0001 59H42.0001ZM6.00006 51V59C6.00006 63.4183 9.58178 67 14.0001 67C18.4184 67 22.0001 63.4183 22.0001 59V51H6.00006ZM26.0001 47V31H34.0001C38.4184 31 42.0001 34.5817 42.0001 39C42.0001 43.4183 38.4184 47 34.0001 47H26.0001Z" fill="#263238"/>
</g>
<g clip-path="url(#clip1_10_944)">
<path fill-rule="evenodd" clip-rule="evenodd" d="M197.986 38.9614L188 48.8468C189.997 50.8241 192.279 52.4905 194.767 53.7942C195.454 55.5998 196.532 57.2931 198 58.7463C203.523 64.2136 212.477 64.2136 218 58.7463C219.468 57.2931 220.546 55.5998 221.233 53.7941C223.721 52.4905 226.003 50.8241 228 48.8468L218.022 38.9695C218.015 38.9621 218.007 38.9547 218 38.9473C212.477 33.48 203.523 33.48 198 38.9473C197.995 38.952 197.991 38.9567 197.986 38.9614ZM217.045 55.5777C214.135 56.5499 211.08 57.0478 208 57.0478C204.92 57.0478 201.866 56.5499 198.956 55.5777C199.271 55.9918 199.619 56.3892 200 56.7664C204.418 61.1403 211.582 61.1403 216 56.7664C216.381 56.3892 216.729 55.9918 217.045 55.5777ZM200.205 40.7292C200.955 41.2199 201.753 41.6398 202.588 41.9822C204.304 42.6857 206.143 43.0478 208 43.0478C209.857 43.0478 211.696 42.6857 213.412 41.9822C214.247 41.6398 215.045 41.2199 215.795 40.7292C211.432 36.6193 204.568 36.6193 200.205 40.7292Z" fill="#3B4158"/>
</g>
<g clip-path="url(#clip2_10_944)">
<path d="M419.996 44.5165C420.001 44.4748 420.001 44.4326 419.996 44.3909C420.001 44.3569 420.001 44.3223 419.996 44.2882L419.588 41.3556C419.53 41.0047 419.372 40.6768 419.134 40.4085L419.064 40.3286L418.937 40.2031L411.883 34.2465L412.081 34.4405C411.919 34.2506 411.716 34.0987 411.486 33.996C411.256 33.8933 411.006 33.8424 410.754 33.8471H408.612C408.264 33.8403 407.924 33.9489 407.646 34.1552C407.355 33.9501 407.004 33.8421 406.645 33.8471H404.503C404.222 33.8426 403.945 33.911 403.7 34.0452C403.455 34.1795 403.25 34.3749 403.107 34.6116C402.885 34.9498 402.802 35.3572 402.874 35.7527L403.142 37.6013C402.964 37.5028 402.763 37.4516 402.56 37.453H392.189C391.817 37.4553 391.453 37.5622 391.141 37.7611C390.839 37.9462 390.597 38.2113 390.443 38.5256L389.64 37.8524C389.324 37.5656 388.906 37.4102 388.476 37.4188H372.204C371.83 37.4254 371.465 37.5277 371.144 37.7155C370.706 37.9672 370.384 38.3764 370.248 38.8566L365.08 55.802C364.984 56.0812 364.974 56.3824 365.053 56.6669C365.132 56.9514 365.295 57.2065 365.522 57.3996C365.582 57.4488 365.644 57.4945 365.709 57.5365C365.709 57.5365 365.604 57.468 365.546 57.411L372.599 63.379C372.898 63.6483 373.288 63.7988 373.693 63.8011H390.094C390.468 63.7916 390.833 63.6853 391.153 63.493C391.333 63.3963 391.495 63.2688 391.63 63.1165L391.688 63.0366L391.781 62.9225L391.851 62.797L392.619 63.4474C392.913 63.706 393.295 63.8483 393.69 63.8468H410.125C410.499 63.8346 410.864 63.7285 411.184 63.5387C411.361 63.436 411.522 63.3092 411.662 63.1621L411.72 63.0823L411.813 62.9682C411.863 62.896 411.905 62.8196 411.941 62.7399C411.979 62.6707 412.01 62.5981 412.034 62.5231L416.748 47.0497V46.9128C416.754 46.8597 416.754 46.8061 416.748 46.753V46.6504C416.754 46.6163 416.754 46.5817 416.748 46.5476C416.753 46.4755 416.753 46.403 416.748 46.3308H418.261C418.393 46.3426 418.525 46.3426 418.657 46.3308H418.762C418.847 46.3059 418.929 46.2714 419.006 46.2281H419.123L419.332 46.0684L419.425 45.9999L419.588 45.7945V45.7261L419.705 45.532C419.698 45.4943 419.698 45.4557 419.705 45.418C419.698 45.3994 419.698 45.3794 419.705 45.3609C419.729 45.294 419.749 45.2253 419.763 45.1555C419.757 45.133 419.757 45.1095 419.763 45.087C419.757 45.053 419.757 45.0183 419.763 44.9843C419.763 44.9843 419.996 44.5393 419.996 44.5165Z" fill="black"/>
<path d="M388.953 38.7197C389.015 38.7745 389.058 38.8465 389.077 38.9261C389.095 39.0057 389.089 39.089 389.058 39.1647L383.901 56.0988C383.836 56.2836 383.704 56.4382 383.529 56.5324C383.387 56.6256 383.222 56.6807 383.052 56.6922H366.663C366.523 56.6856 366.391 56.6287 366.291 56.5324C366.231 56.4785 366.189 56.4084 366.171 56.3313C366.152 56.254 366.157 56.1731 366.186 56.0988L371.354 39.1647C371.413 38.9775 371.542 38.8188 371.715 38.7197C371.859 38.6332 372.023 38.5823 372.192 38.5714H388.58C388.719 38.5727 388.852 38.6257 388.953 38.7197ZM380.398 52.6869L383.482 42.5766H374.846L371.773 52.6869H380.398ZM404.596 38.8909C404.652 38.9546 404.722 39.0051 404.801 39.0387C404.879 39.0723 404.965 39.088 405.05 39.0849H407.18C407.262 39.0856 407.342 39.0661 407.413 39.0282C407.484 38.9903 407.544 38.9351 407.588 38.868C407.626 38.8156 407.652 38.7563 407.666 38.6936C407.68 38.6308 407.681 38.566 407.669 38.5029L407.25 35.4904C407.21 35.3509 407.139 35.2222 407.041 35.1138C406.985 35.0501 406.915 34.9996 406.836 34.966C406.758 34.9324 406.672 34.9166 406.587 34.9198H404.457C404.376 34.919 404.296 34.9385 404.224 34.9765C404.153 35.0144 404.093 35.0695 404.049 35.1366C403.968 35.2964 403.933 35.3991 403.968 35.4904L404.399 38.5029C404.421 38.6496 404.49 38.7855 404.596 38.8909ZM411.359 35.4676C411.319 35.3281 411.248 35.1994 411.15 35.091C411.096 35.0275 411.028 34.977 410.951 34.9434C410.875 34.9097 410.791 34.8939 410.707 34.897H408.566C408.486 34.8948 408.407 34.9137 408.337 34.9519C408.268 34.9901 408.21 35.046 408.17 35.1138C408.092 35.215 408.059 35.3422 408.077 35.4676L408.507 38.4801C408.534 38.6252 408.603 38.7598 408.705 38.868C408.762 38.9305 408.832 38.9802 408.911 39.0137C408.989 39.0471 409.074 39.0636 409.159 39.062H411.301C411.38 39.0631 411.459 39.0436 411.528 39.0055C411.598 38.9675 411.656 38.9122 411.697 38.8452C411.737 38.7942 411.765 38.7349 411.78 38.6717C411.794 38.6085 411.793 38.543 411.778 38.4801L411.359 35.4676ZM402.722 40.032L402.513 38.5485H392.189C392.027 38.5573 391.87 38.6085 391.735 38.6969C391.649 38.7427 391.574 38.8062 391.516 38.8831C391.458 38.9599 391.417 39.0482 391.397 39.1419L390.536 41.9718C390.501 42.0426 390.49 42.1219 390.502 42.1993C390.515 42.2767 390.551 42.3486 390.606 42.4055C390.704 42.4959 390.832 42.5487 390.967 42.5538H403.514L400.43 52.6641H387.917C387.756 52.6677 387.598 52.7151 387.463 52.8009C387.298 52.9035 387.178 53.0619 387.125 53.246L386.253 56.076C386.224 56.1486 386.217 56.2275 386.231 56.304C386.245 56.3805 386.281 56.4516 386.334 56.5095C386.429 56.6061 386.558 56.6632 386.695 56.6693H403.13C403.3 56.655 403.464 56.6001 403.607 56.5095C403.779 56.4149 403.908 56.26 403.968 56.076L408.694 40.6025H403.374C403.29 40.6042 403.206 40.5888 403.128 40.5574C403.05 40.526 402.979 40.4792 402.92 40.4199C402.824 40.3165 402.756 40.1909 402.722 40.0548V40.032Z" fill="white"/>
</g>
<g clip-path="url(#clip3_10_944)">
<path d="M596.997 38.4115C596.997 38.4453 596.997 38.4876 596.988 38.5129C596.944 38.8426 596.944 39.1723 596.97 39.5105C596.988 39.595 597.005 39.6795 597.076 39.7472C597.19 39.874 597.366 39.8486 597.437 39.6964C597.472 39.6204 597.472 39.5443 597.454 39.4682C597.366 39.147 597.349 38.8088 597.34 38.4791C597.34 38.4622 597.34 38.4369 597.34 38.4115C597.437 38.4031 597.525 38.3946 597.604 38.3946C597.666 38.3861 597.719 38.3777 597.763 38.3523C597.895 38.2847 597.895 38.141 597.754 38.0734C597.701 38.048 597.631 38.0396 597.569 38.0396C597.349 38.048 597.129 38.048 596.908 38.048C596.829 38.048 596.75 38.0565 596.671 38.0649C596.627 38.0734 596.574 38.0734 596.539 38.0987C596.477 38.1241 596.442 38.1664 596.442 38.2255C596.45 38.2847 596.477 38.3185 596.539 38.3439C596.574 38.3692 596.618 38.3777 596.662 38.3777C596.767 38.3861 596.882 38.4031 596.997 38.4115ZM599.419 38.8004C599.419 38.8088 599.427 38.8173 599.427 38.8173C599.463 39.0455 599.498 39.2653 599.524 39.4851C599.533 39.5612 599.542 39.6288 599.595 39.688C599.709 39.8317 599.885 39.8148 599.965 39.6626C600 39.5865 600.009 39.5105 599.991 39.4259C599.938 39.1723 599.912 38.9187 599.859 38.6736C599.824 38.5214 599.78 38.3777 599.736 38.2424C599.709 38.1579 599.648 38.0987 599.542 38.0903C599.436 38.0734 599.357 38.1241 599.313 38.2002C599.26 38.2678 599.216 38.3354 599.181 38.4115C599.119 38.5468 599.066 38.682 598.996 38.8088C598.987 38.8426 598.978 38.868 598.961 38.8934C598.952 38.8764 598.943 38.868 598.943 38.868C598.829 38.6567 598.723 38.4453 598.608 38.2424C598.591 38.2255 598.582 38.2086 598.573 38.1917C598.52 38.1156 598.459 38.0734 598.362 38.0734C598.274 38.0818 598.203 38.1325 598.159 38.2086C598.142 38.2424 598.142 38.2678 598.133 38.3016C598.097 38.5721 598.053 38.8426 598.018 39.1131C598.001 39.2653 597.992 39.4175 597.992 39.5696C597.983 39.6034 597.992 39.6457 598.009 39.6795C598.027 39.7471 598.08 39.7894 598.15 39.7979C598.238 39.8063 598.3 39.781 598.326 39.7133C598.353 39.6626 598.362 39.6204 598.371 39.5781C598.406 39.4259 598.432 39.2822 598.459 39.1385C598.476 39.054 598.485 38.9863 598.511 38.8934C598.529 38.9272 598.547 38.9525 598.564 38.9779C598.644 39.0793 598.723 39.1808 598.82 39.2653C598.917 39.3329 598.996 39.3245 599.075 39.2484C599.093 39.2315 599.102 39.223 599.119 39.2061C599.198 39.0878 599.295 38.9694 599.375 38.8511C599.392 38.8342 599.401 38.8173 599.419 38.8004Z" fill="#3A3B7B"/>
<path d="M579.124 38.5776C579.063 38.7383 579.052 38.854 579.08 38.9502C579.111 39.081 579.192 39.1238 579.302 39.0906C580.337 38.845 582.605 39.542 583.445 39.7362C583.643 39.777 583.804 39.5316 583.669 39.3115C583.472 39.0985 581.204 38.1862 580.339 38.1364C580 38.118 579.394 38.0346 579.124 38.5776Z" fill="#3A3B7B"/>
<path d="M587.99 35.6244C588.101 35.6854 588.162 35.7437 588.193 35.8088C588.238 35.8942 588.214 35.9533 588.138 35.9834C587.454 36.3037 586.544 37.6828 586.177 38.1585C586.088 38.2679 585.882 38.2043 585.851 38.0244C585.858 37.8209 586.664 36.3243 587.115 35.9167C587.291 35.7575 587.584 35.4453 587.99 35.6244Z" fill="#3A3B7B"/>
<path d="M582.544 34.9455C582.677 34.8497 582.815 34.8161 582.885 34.8784C583.917 35.7253 584.464 37.0664 584.803 38.2942C584.815 38.3228 584.816 38.3639 584.806 38.4067C584.802 38.4433 584.774 38.482 584.73 38.5119C584.682 38.5449 584.642 38.555 584.623 38.5265C584.17 37.9362 581.588 35.6393 582.544 34.9455Z" fill="#3A3B7B"/>
<path d="M560.695 49.6286C560.943 49.4519 561.211 49.3048 561.496 49.1906C561.793 49.109 562.111 49.1225 562.4 49.2293C562.689 49.336 562.933 49.5301 563.097 49.7823C563.244 50.0338 563.301 50.3242 563.26 50.6097C563.22 50.8952 563.084 51.1603 562.873 51.3652C562.709 51.5313 562.523 51.676 562.321 51.7956C561.416 52.3565 560.503 52.8867 559.59 53.4476C559.404 53.588 559.206 53.714 558.998 53.8242C558.682 53.9753 558.321 54.0158 557.978 53.9386C557.634 53.8615 557.33 53.6715 557.116 53.4016C556.957 53.2104 556.823 53.0014 556.716 52.7791C555.851 51.0348 554.955 49.2982 554.122 47.5231C553.738 46.7548 553.426 45.8711 553.121 45.0181C552.99 44.7703 552.964 44.483 553.05 44.2173C553.135 43.9515 553.326 43.7284 553.58 43.5952C553.835 43.4621 554.133 43.4295 554.412 43.5044C554.692 43.5793 554.929 43.7557 555.075 43.9961C555.523 44.5673 555.919 45.174 556.26 45.8096C557.124 47.3464 557.949 48.8832 558.782 50.374C558.83 50.4564 558.884 50.5358 558.942 50.6122C559.569 50.3593 560.158 50.0286 560.695 49.6286Z" fill="#3A3B7B"/>
<path d="M569.635 49.0925C567.658 51.3132 564.343 50.7522 562.678 47.8937C561.493 45.8651 561.285 42.5148 563.863 40.4017C564.413 39.9593 565.072 39.6579 565.776 39.5257C566.64 39.4068 567.521 39.5531 568.294 39.9437C569.066 40.3342 569.689 40.9491 570.076 41.7003C571.485 44.1592 571.285 47.2943 569.635 49.0925ZM568.835 43.9133C568.625 43.3091 568.203 42.7932 567.642 42.4533C567.324 42.236 566.938 42.1304 566.549 42.1542C566.16 42.178 565.791 42.3297 565.504 42.584C564.359 43.5599 564.119 45.8728 564.952 47.2483C565.058 47.4726 565.214 47.6719 565.409 47.8323C565.603 47.9927 565.832 48.1104 566.079 48.1769C566.326 48.2436 566.586 48.2575 566.839 48.2179C567.092 48.1782 567.333 48.086 567.546 47.9475C568.166 47.4857 568.622 46.8498 568.848 46.1282C569.075 45.4066 569.062 44.6351 568.811 43.921L568.835 43.9133Z" fill="#3A3B7B"/>
<path d="M577.706 44.8816C577.503 44.9234 577.294 44.9259 577.09 44.8889C576.887 44.8519 576.693 44.7763 576.521 44.6665C576.37 44.5836 576.24 44.4696 576.14 44.3327C576.04 44.1958 575.974 44.0395 575.945 43.8748C575.916 43.7103 575.925 43.5415 575.972 43.3808C576.019 43.22 576.102 43.0713 576.216 42.9452C576.415 42.6918 576.697 42.5105 577.017 42.4304C577.852 42.1978 578.711 42.0561 579.579 42.0078C579.77 41.9865 579.963 42.002 580.147 42.0533C580.332 42.1047 580.503 42.1909 580.653 42.3069C580.802 42.4228 580.925 42.5662 581.016 42.7286C581.106 42.891 581.162 43.0692 581.18 43.2526C581.43 44.1536 581.458 45.0982 581.26 46.0112C580.54 48.9619 578.058 49.9762 575.272 49.031C574.49 48.7783 573.804 48.3075 573.302 47.6786C572.633 46.9214 572.159 46.0239 571.917 45.0584C571.721 44.1986 571.743 43.3064 571.98 42.4563C572.216 41.6061 572.662 40.8226 573.278 40.1712C573.863 39.4633 574.623 38.9061 575.488 38.5499C576.035 38.2606 576.674 38.1784 577.281 38.3194C577.419 38.3559 577.544 38.4272 577.643 38.5257C577.742 38.6243 577.812 38.7465 577.846 38.8798C577.88 39.013 577.875 39.1525 577.834 39.2836C577.792 39.4148 577.715 39.5329 577.61 39.6257C577.41 39.7994 577.192 39.9538 576.961 40.0867C576.249 40.5218 575.63 41.0823 575.136 41.7388C574.812 42.1636 574.588 42.6514 574.482 43.1678C574.375 43.6842 574.388 44.2167 574.519 44.728C574.701 45.425 575.104 46.0507 575.672 46.5183C577.433 48.0552 579.723 46.5721 579.323 44.4743C578.738 44.6127 578.226 44.7587 577.706 44.8816Z" fill="#3A3B7B"/>
<path d="M588.466 49.2154C585.864 50.7523 582.902 49.2154 582.253 45.9881C581.781 43.6829 582.678 40.4556 585.816 39.2261C586.484 38.9701 587.208 38.8803 587.922 38.9648C588.779 39.1155 589.565 39.5206 590.17 40.123C590.775 40.7255 591.167 41.4949 591.292 42.3228C591.821 45.066 590.62 47.9937 588.466 49.2154ZM589.371 44.044C589.37 43.4057 589.135 42.788 588.706 42.2997C588.477 41.9977 588.146 41.7814 587.769 41.6874C587.393 41.5936 586.994 41.628 586.641 41.7849C585.232 42.3689 584.239 44.4897 584.599 46.0496C584.627 46.2944 584.709 46.5305 584.842 46.7414C584.974 46.9522 585.153 47.1327 585.366 47.2703C585.579 47.4079 585.82 47.4992 586.074 47.5379C586.327 47.5766 586.586 47.5617 586.833 47.4942C587.578 47.2445 588.222 46.7778 588.677 46.1592C589.132 45.5407 589.375 44.8012 589.371 44.044Z" fill="#3A3B7B"/>
<path d="M593.924 49.8609C593.884 50.1421 593.73 50.3969 593.495 50.5691C593.26 50.7413 592.964 50.8169 592.671 50.7792C592.378 50.7415 592.112 50.5936 591.933 50.368C591.753 50.1425 591.675 49.8578 591.714 49.5766C591.753 49.2953 591.907 49.0406 592.142 48.8684C592.377 48.6962 592.674 48.6206 592.967 48.6583C593.26 48.696 593.525 48.8439 593.705 49.0694C593.884 49.295 593.963 49.5797 593.924 49.8609ZM593.227 39.495C593.379 39.2718 593.603 39.1018 593.864 39.0104C594.125 38.919 594.41 38.9111 594.676 38.9878C594.947 39.0528 595.186 39.2051 595.354 39.4191C595.521 39.6331 595.607 39.8959 595.597 40.1635C595.562 40.5927 595.495 41.0189 595.397 41.4391C595.133 42.8606 594.876 44.2822 594.596 45.6884C594.468 46.2494 594.3 46.7872 594.116 47.3558C594.052 47.5336 593.945 47.6942 593.803 47.8246C593.716 47.9227 593.604 47.9979 593.478 48.0433C593.351 48.0888 593.216 48.1029 593.082 48.0845C592.949 48.0661 592.823 48.0158 592.715 47.9381C592.607 47.8604 592.522 47.758 592.466 47.6402C592.371 47.4289 592.32 47.2018 592.314 46.9717C592.314 46.0188 592.314 45.0583 592.378 44.0978C592.487 42.727 592.701 41.3657 593.019 40.0252C593.056 39.8456 593.127 39.6738 593.227 39.518V39.495Z" fill="#3A3B7B"/>
<path fill-rule="evenodd" clip-rule="evenodd" d="M557.313 56.0357C557.218 56.2383 557.192 56.4641 557.238 56.6814C557.269 56.9678 557.337 57.2496 557.439 57.5202C557.568 57.8516 557.711 58.1793 557.888 58.5832C557.929 58.6761 557.971 58.7731 558.016 58.8752C558.254 59.4224 558.554 60.1217 558.953 61.1337C559.066 61.4212 559.167 61.7111 559.268 62.003C559.309 62.1209 559.35 62.2392 559.392 62.3577C559.542 62.7793 559.801 63.158 560.144 63.4582C560.289 63.6231 560.482 63.7434 560.699 63.8035C560.92 63.8648 561.155 63.8609 561.373 63.7923C561.592 63.7237 561.784 63.5936 561.924 63.4189C562.062 63.2476 562.143 63.0412 562.159 62.8255C562.249 62.4054 562.218 61.9698 562.071 61.5648C561.837 60.8923 561.571 60.2189 561.265 59.5602L561.263 59.5573C560.758 58.5267 560.245 57.5033 559.708 56.4794L559.704 56.4723C559.547 56.2055 559.342 55.9671 559.1 55.7676C558.942 55.5896 558.725 55.4695 558.486 55.4281C558.241 55.3859 557.988 55.4285 557.773 55.5483C557.57 55.6599 557.408 55.8305 557.313 56.0357Z" fill="#3A3B7B"/>
<path fill-rule="evenodd" clip-rule="evenodd" d="M565.022 53.4981C564.231 53.3014 563.404 53.2727 562.6 53.4142C561.977 53.473 561.365 53.6109 560.939 53.884C560.723 54.023 560.548 54.2015 560.451 54.4284C560.353 54.6565 560.341 54.9173 560.421 55.208C560.567 55.7404 560.757 56.2581 560.947 56.7741L560.977 56.8576L560.978 56.8595C561.548 58.3585 562.124 59.8525 562.705 61.3413C562.773 61.5759 562.869 61.8023 562.991 62.0158L562.993 62.0197C563.154 62.2849 563.361 62.5221 563.604 62.7214C563.726 62.8309 563.876 62.9067 564.039 62.9406C564.204 62.9747 564.376 62.9648 564.535 62.9119C564.694 62.8589 564.836 62.765 564.943 62.6403C565.049 62.5176 565.118 62.3699 565.144 62.2126C565.249 61.7854 565.215 61.3375 565.047 60.9292C564.995 60.7918 564.954 60.6513 564.91 60.5035C564.896 60.4542 564.881 60.404 564.866 60.3529C566.196 59.854 567.611 59.1831 568.108 57.6224C568.303 57.083 568.32 56.499 568.155 55.9504C567.99 55.4012 567.652 54.9144 567.187 54.557C566.555 54.0568 565.816 53.6953 565.022 53.4981ZM562.828 55.4125C562.855 55.4052 562.881 55.3985 562.907 55.3922C563.773 55.2616 564.659 55.4357 565.402 55.8823C565.729 56.1007 565.863 56.3435 565.886 56.5771C565.91 56.8176 565.819 57.0782 565.636 57.3287C565.29 57.8019 564.659 58.1807 564.089 58.2513C563.673 57.3326 563.251 56.3768 562.828 55.4125Z" fill="#3A3B7B"/>
<path d="M570.299 51.8165C571.242 51.3988 572.409 51.3266 573.323 51.6203C573.553 51.6847 573.753 51.8238 573.888 52.0139C574.022 52.2029 574.084 52.4306 574.063 52.6583C574.062 52.806 574.024 52.9514 573.953 53.0826C573.88 53.2161 573.775 53.3309 573.647 53.4174C573.519 53.5038 573.371 53.5594 573.215 53.5792C573.06 53.5991 572.901 53.5828 572.754 53.5316L572.743 53.5277L572.732 53.5223C572.657 53.4844 572.577 53.4559 572.494 53.4373L572.488 53.4362C571.846 53.2724 571.24 53.5438 571.018 53.8774C570.912 54.0364 570.899 54.197 570.987 54.343C571.082 54.4994 571.313 54.675 571.78 54.8001C571.909 54.8339 572.04 54.8666 572.174 54.8998C572.544 54.9917 572.928 55.0872 573.3 55.2194L573.301 55.22C575.015 55.8458 575.653 57.1421 575.435 58.3613C575.218 59.5669 574.169 60.6642 572.592 60.923C572.018 61.0451 571.42 61.0213 570.858 60.854C570.295 60.6861 569.788 60.3799 569.386 59.9654L569.376 59.9546C569.249 59.7985 569.164 59.615 569.126 59.4204C569.091 59.2448 569.11 59.0633 569.179 58.8972C569.247 58.7322 569.364 58.5894 569.514 58.4853C569.672 58.3673 569.863 58.2965 570.063 58.2818C570.263 58.2671 570.462 58.3087 570.637 58.4013C570.812 58.4824 570.975 58.5858 571.121 58.7088L571.123 58.711C571.382 58.9377 571.694 58.9968 571.994 58.942C572.298 58.8866 572.584 58.7139 572.767 58.4849C572.95 58.2573 573.023 57.987 572.936 57.7245C572.849 57.4601 572.585 57.164 572.007 56.9163C571.856 56.8547 571.699 56.805 571.536 56.7566C571.492 56.7436 571.447 56.7306 571.402 56.7174C571.281 56.6823 571.157 56.6461 571.036 56.6062C570.952 56.5788 570.869 56.5528 570.786 56.5271C570.561 56.4567 570.342 56.3882 570.131 56.2963C569.672 56.1461 569.275 55.8578 568.999 55.474C568.723 55.0887 568.584 54.628 568.603 54.1605C568.604 53.0214 569.352 52.2367 570.299 51.8165Z" fill="#3A3B7B"/>
<path d="M582.249 51.6953C582.066 51.6096 581.864 51.5689 581.661 51.5769C581.457 51.585 581.26 51.6414 581.085 51.7412C580.911 51.8403 580.766 51.9792 580.661 52.1453C580.566 52.2852 580.5 52.4417 580.467 52.606C580.434 52.7702 580.435 52.9389 580.469 53.1027C580.503 53.3132 580.541 53.5179 580.578 53.7198C580.64 54.0539 580.7 54.3805 580.739 54.7135L580.741 54.7219C580.831 55.2441 580.878 55.7722 580.883 56.3015L580.883 56.309C580.914 56.8805 580.711 57.441 580.318 57.8714L580.311 57.879C580.184 58.0363 580.013 58.1564 579.818 58.2258C579.623 58.2952 579.411 58.3112 579.207 58.2719C579.003 58.2326 578.815 58.1397 578.663 58.0034C578.511 57.8672 578.401 57.6925 578.347 57.5C578.23 57.0942 578.162 56.6768 578.145 56.2562L578.345 53.207C578.347 53.1672 578.351 53.1264 578.354 53.0851C578.362 52.9925 578.37 52.8982 578.373 52.8102C578.378 52.6808 578.374 52.5476 578.342 52.4216C578.31 52.2928 578.249 52.1703 578.14 52.066C578.033 51.9627 577.888 51.8865 577.705 51.8346C577.375 51.7429 577.096 51.7458 576.864 51.8405C576.631 51.9353 576.472 52.1111 576.359 52.3142C576.247 52.5157 576.175 52.7541 576.121 52.993C576.08 53.1702 576.048 53.3563 576.017 53.5334C576.006 53.5944 575.996 53.6543 575.985 53.7125L575.985 53.7142C575.82 54.6854 575.771 55.6716 575.839 56.6535C575.852 57.1841 575.967 57.7079 576.179 58.1981C576.418 58.8305 576.852 59.3785 577.422 59.7697C577.994 60.1616 578.676 60.3776 579.379 60.389C580.081 60.4004 580.771 60.2067 581.356 59.8336C581.94 59.461 582.393 58.927 582.654 58.3023C583.02 57.5064 583.192 56.6409 583.157 55.7717C583.135 55.1371 583.099 54.4977 583.063 53.8615C583.046 53.5494 583.028 53.238 583.012 52.9284C583.005 52.6181 582.898 52.3175 582.707 52.0669C582.589 51.9086 582.431 51.7808 582.249 51.6953Z" fill="#3A3B7B"/>
<path d="M588.717 56.4764C588.699 56.499 588.679 56.5224 588.659 56.5467C588.51 55.7236 588.372 54.9008 588.234 54.0768C588.185 53.7811 588.135 53.4842 588.085 53.1881L588.08 53.1551L588.061 53.1266C588.027 53.0728 588.023 53.0202 588.023 52.9079V52.8949L588.021 52.882C587.984 52.6501 587.875 52.4342 587.708 52.2627C587.541 52.0917 587.325 51.9727 587.087 51.921C586.85 51.8648 586.6 51.8772 586.37 51.9567C586.14 52.036 585.94 52.1784 585.794 52.3663C585.673 52.5104 585.574 52.6703 585.499 52.8412C585.331 53.2092 585.16 53.5782 584.989 53.9481L584.987 53.9545C584.56 54.8781 584.131 55.8079 583.714 56.745L583.713 56.748C583.457 57.3556 583.246 57.9958 583.035 58.6341C582.993 58.7615 582.951 58.8889 582.909 59.0159C582.833 59.2173 582.799 59.4312 582.811 59.6451C582.797 59.8366 582.845 60.0276 582.948 60.1923C583.053 60.3603 583.21 60.4926 583.397 60.5704C583.596 60.654 583.818 60.6717 584.028 60.6208C584.238 60.57 584.425 60.4537 584.558 60.2903C584.729 60.0889 584.876 59.8693 584.995 59.6367C585.348 58.9434 585.686 58.2418 586.022 57.5431C586.152 57.2729 586.278 57.0309 586.422 56.7673C586.431 56.7998 586.442 56.8315 586.452 56.8633C586.603 57.4996 586.857 58.1091 587.205 58.6695C587.271 58.7882 587.363 58.8919 587.474 58.9736C587.587 59.0563 587.717 59.1143 587.856 59.1437C587.994 59.1732 588.138 59.1733 588.277 59.1441C588.415 59.115 588.546 59.0569 588.658 58.9747L588.882 58.8142L590.616 57.4125L590.513 58.0396C590.372 58.9016 590.233 59.7565 590.084 60.6115C589.987 60.9905 589.987 61.3863 590.085 61.7652C590.127 61.9784 590.234 62.1747 590.393 62.329C590.554 62.4847 590.759 62.5904 590.983 62.6326C591.206 62.6747 591.438 62.6513 591.648 62.5655C591.855 62.4809 592.03 62.3395 592.153 62.1592C592.439 61.8188 592.617 61.4066 592.666 60.9718C592.739 60.3578 592.823 59.7355 592.906 59.1133C593.002 58.3961 593.097 57.6792 593.178 56.976L593.179 56.9738C593.256 56.204 593.294 55.4311 593.292 54.6578C593.309 54.4134 593.245 54.1699 593.11 53.9618C592.975 53.753 592.774 53.5907 592.537 53.4978C592.29 53.3901 592.013 53.3613 591.748 53.4158C591.485 53.4698 591.246 53.6031 591.068 53.7961C590.748 54.08 590.448 54.3838 590.169 54.7055L590.168 54.7076C589.864 55.071 589.562 55.4415 589.262 55.8096C589.08 56.0333 588.898 56.2566 588.717 56.4764Z" fill="#3A3B7B"/>
</g>
<g clip-path="url(#clip4_10_944)">
<path d="M778.438 36.6905C778.438 37.1565 778.82 37.5343 779.292 37.5343H780.146C780.618 37.5343 781 37.1565 781 36.6905C781 36.2246 780.618 35.8468 780.146 35.8468H779.292C778.82 35.8468 778.438 36.2246 778.438 36.6905Z" fill="#212326"/>
<path d="M753.667 62.8468H757.816L756.608 61.6535C756.288 61.3371 755.853 61.1593 755.4 61.1593H753.667C747.062 61.1593 741.708 55.8707 741.708 49.3468C741.708 42.8229 747.062 37.5343 753.667 37.5343H767.333C773.938 37.5343 779.292 42.8229 779.292 49.3468C779.292 55.8707 773.938 61.1593 767.333 61.1593H762.221C761.541 61.1593 760.889 60.8926 760.409 60.4179L758.994 59.02C758.193 58.2288 757.106 57.7843 755.974 57.7843H753.667C748.949 57.7843 745.125 54.0067 745.125 49.3468C745.125 44.6869 748.949 40.9093 753.667 40.9093H767.333C772.051 40.9093 775.875 44.6869 775.875 49.3468C775.875 54.0067 772.051 57.7843 767.333 57.7843H764.051C763.371 57.7843 762.719 57.5176 762.239 57.0429L760.823 55.645C760.022 54.8538 758.936 54.4093 757.803 54.4093H753.667C750.836 54.4093 748.542 52.1427 748.542 49.3468C748.542 46.5509 750.836 44.2843 753.667 44.2843H767.333C770.164 44.2843 772.458 46.5509 772.458 49.3468C772.458 52.1086 770.219 54.354 767.437 54.4083L767.436 54.4093H766.186C765.506 54.4093 764.855 54.1426 764.374 53.6679L762.959 52.27C762.302 51.6207 761.452 51.205 760.543 51.0767L760.5 51.0343H753.667C752.723 51.0343 751.958 50.2788 751.958 49.3468C751.958 48.4148 752.723 47.6593 753.667 47.6593H767.333C768.277 47.6593 769.042 48.4148 769.042 49.3468C769.042 50.2788 768.277 51.0343 767.333 51.0343H763.917L765.125 52.2276C765.445 52.544 765.88 52.7218 766.333 52.7218H767.333C769.22 52.7218 770.75 51.2107 770.75 49.3468C770.75 47.4829 769.22 45.9718 767.333 45.9718H753.667C751.78 45.9718 750.25 47.4829 750.25 49.3468C750.25 51.2107 751.78 52.7218 753.667 52.7218H759.939C760.619 52.7218 761.27 52.9885 761.751 53.4632L763.166 54.8611C763.967 55.6523 765.053 56.0968 766.186 56.0968H767.76V56.0838C771.335 55.8661 774.167 52.933 774.167 49.3468C774.167 45.6189 771.107 42.5968 767.333 42.5968H753.667C749.893 42.5968 746.833 45.6189 746.833 49.3468C746.833 53.0748 749.893 56.0968 753.667 56.0968H757.803C758.483 56.0968 759.135 56.3635 759.615 56.8382L761.031 58.2361C761.832 59.0273 762.918 59.4718 764.051 59.4718H767.333C772.994 59.4718 777.583 54.9387 777.583 49.3468C777.583 43.7549 772.994 39.2218 767.333 39.2218H753.667C748.006 39.2218 743.417 43.7549 743.417 49.3468C743.417 54.9387 748.006 59.4718 753.667 59.4718H755.974C756.653 59.4718 757.305 59.7385 757.786 60.2132L759.201 61.6111C760.002 62.4023 761.088 62.8468 762.221 62.8468H767.333C774.881 62.8468 781 56.8027 781 49.3468C781 41.891 774.881 35.8468 767.333 35.8468L753.667 35.8468C746.119 35.8468 740 41.891 740 49.3468C740 56.8027 746.119 62.8468 753.667 62.8468Z" fill="#212326"/>
</g>
<g clip-path="url(#clip5_10_944)">
<path d="M930.343 38.8468C928.312 38.8468 926.365 39.6535 924.929 41.0894L920.243 45.7757C918.807 47.2117 918 49.1592 918 51.1899C918 55.4187 921.428 58.8468 925.657 58.8468C927.688 58.8468 929.635 58.0401 931.071 56.6041L934.313 53.3626C934.313 53.3625 934.313 53.3627 934.313 53.3626L943.757 43.9179C944.443 43.2321 945.373 42.8468 946.343 42.8468C947.967 42.8468 949.343 43.9051 949.821 45.3695L952.801 42.3888C951.442 40.259 949.057 38.8468 946.343 38.8468C944.312 38.8468 942.365 39.6535 940.929 41.0894L928.243 53.7757C927.557 54.4615 926.627 54.8468 925.657 54.8468C923.637 54.8468 922 53.2096 922 51.1899C922 50.2201 922.385 49.2899 923.071 48.6041L927.757 43.9179C928.443 43.2321 929.373 42.8468 930.343 42.8468C931.967 42.8468 933.343 43.9051 933.821 45.3696L936.802 42.3888C935.442 40.2591 933.057 38.8468 930.343 38.8468Z" fill="#394149"/>
<path d="M944.243 53.7757C943.557 54.4615 942.627 54.8468 941.657 54.8468C940.033 54.8468 938.657 53.7888 938.18 52.3246L935.199 55.3053C936.559 57.4347 938.943 58.8468 941.657 58.8468C943.688 58.8468 945.635 58.0401 947.071 56.6041L959.757 43.9179C960.443 43.2321 961.373 42.8468 962.343 42.8468C964.363 42.8468 966 44.484 966 46.5037C966 47.4735 965.615 48.4037 964.929 49.0895L960.243 53.7757C959.557 54.4615 958.627 54.8468 957.657 54.8468C956.033 54.8468 954.657 53.7886 954.179 52.3243L951.199 55.305C952.559 57.4347 954.943 58.8468 957.657 58.8468C959.688 58.8468 961.635 58.0401 963.071 56.6041L967.757 51.9179C969.193 50.4819 970 48.5344 970 46.5037C970 42.2749 966.572 38.8468 962.343 38.8468C960.312 38.8468 958.365 39.6535 956.929 41.0894L944.243 53.7757Z" fill="#394149"/>
</g>
<g clip-path="url(#clip6_10_944)">
<path d="M1156 44.5165C1156 44.4748 1156 44.4326 1156 44.3909C1156 44.3569 1156 44.3223 1156 44.2882L1155.59 41.3556C1155.53 41.0047 1155.37 40.6768 1155.13 40.4085L1155.06 40.3286L1154.94 40.2031L1147.88 34.2465L1148.08 34.4405C1147.92 34.2506 1147.72 34.0987 1147.49 33.996C1147.26 33.8933 1147.01 33.8424 1146.75 33.8471H1144.61C1144.26 33.8403 1143.92 33.9489 1143.65 34.1552C1143.35 33.9501 1143 33.8421 1142.65 33.8471H1140.5C1140.22 33.8426 1139.95 33.911 1139.7 34.0452C1139.45 34.1795 1139.25 34.3749 1139.11 34.6116C1138.89 34.9498 1138.8 35.3572 1138.87 35.7527L1139.14 37.6013C1138.96 37.5028 1138.76 37.4516 1138.56 37.453H1128.19C1127.82 37.4553 1127.45 37.5622 1127.14 37.7611C1126.84 37.9462 1126.6 38.2113 1126.44 38.5256L1125.64 37.8524C1125.32 37.5656 1124.91 37.4102 1124.48 37.4188H1108.2C1107.83 37.4254 1107.47 37.5277 1107.14 37.7155C1106.71 37.9672 1106.38 38.3764 1106.25 38.8566L1101.08 55.802C1100.98 56.0812 1100.97 56.3824 1101.05 56.6669C1101.13 56.9514 1101.3 57.2065 1101.52 57.3996C1101.58 57.4488 1101.64 57.4945 1101.71 57.5365C1101.71 57.5365 1101.6 57.468 1101.55 57.411L1108.6 63.379C1108.9 63.6483 1109.29 63.7988 1109.69 63.8011H1126.09C1126.47 63.7916 1126.83 63.6853 1127.15 63.493C1127.33 63.3963 1127.49 63.2688 1127.63 63.1165L1127.69 63.0366L1127.78 62.9225L1127.85 62.797L1128.62 63.4474C1128.91 63.706 1129.3 63.8483 1129.69 63.8468H1146.13C1146.5 63.8346 1146.86 63.7285 1147.18 63.5387C1147.36 63.436 1147.52 63.3092 1147.66 63.1621L1147.72 63.0823L1147.81 62.9682C1147.86 62.896 1147.91 62.8196 1147.94 62.7399C1147.98 62.6707 1148.01 62.5981 1148.03 62.5231L1152.75 47.0497V46.9128C1152.75 46.8597 1152.75 46.8061 1152.75 46.753V46.6504C1152.75 46.6163 1152.75 46.5817 1152.75 46.5476C1152.75 46.4755 1152.75 46.403 1152.75 46.3308H1154.26C1154.39 46.3426 1154.53 46.3426 1154.66 46.3308H1154.76C1154.85 46.3059 1154.93 46.2714 1155.01 46.2281H1155.12L1155.33 46.0684L1155.43 45.9999L1155.59 45.7945V45.7261L1155.7 45.532C1155.7 45.4943 1155.7 45.4557 1155.7 45.418C1155.7 45.3994 1155.7 45.3794 1155.7 45.3609C1155.73 45.294 1155.75 45.2253 1155.76 45.1555C1155.76 45.133 1155.76 45.1095 1155.76 45.087C1155.76 45.053 1155.76 45.0183 1155.76 44.9843C1155.76 44.9843 1156 44.5393 1156 44.5165Z" fill="black"/>
<path d="M1124.95 38.7197C1125.01 38.7745 1125.06 38.8465 1125.08 38.9261C1125.1 39.0057 1125.09 39.089 1125.06 39.1647L1119.9 56.0988C1119.84 56.2836 1119.7 56.4382 1119.53 56.5324C1119.39 56.6256 1119.22 56.6807 1119.05 56.6922H1102.66C1102.52 56.6856 1102.39 56.6287 1102.29 56.5324C1102.23 56.4785 1102.19 56.4084 1102.17 56.3313C1102.15 56.254 1102.16 56.1731 1102.19 56.0988L1107.35 39.1647C1107.41 38.9775 1107.54 38.8188 1107.71 38.7197C1107.86 38.6332 1108.02 38.5823 1108.19 38.5714H1124.58C1124.72 38.5727 1124.85 38.6257 1124.95 38.7197ZM1116.4 52.6869L1119.48 42.5766H1110.85L1107.77 52.6869H1116.4ZM1140.6 38.8909C1140.65 38.9546 1140.72 39.0051 1140.8 39.0387C1140.88 39.0723 1140.96 39.088 1141.05 39.0849H1143.18C1143.26 39.0856 1143.34 39.0661 1143.41 39.0282C1143.48 38.9903 1143.54 38.9351 1143.59 38.868C1143.63 38.8156 1143.65 38.7563 1143.67 38.6936C1143.68 38.6308 1143.68 38.566 1143.67 38.5029L1143.25 35.4904C1143.21 35.3509 1143.14 35.2222 1143.04 35.1138C1142.98 35.0501 1142.92 34.9996 1142.84 34.966C1142.76 34.9324 1142.67 34.9166 1142.59 34.9198H1140.46C1140.38 34.919 1140.3 34.9385 1140.22 34.9765C1140.15 35.0144 1140.09 35.0695 1140.05 35.1366C1139.97 35.2964 1139.93 35.3991 1139.97 35.4904L1140.4 38.5029C1140.42 38.6496 1140.49 38.7855 1140.6 38.8909ZM1147.36 35.4676C1147.32 35.3281 1147.25 35.1994 1147.15 35.091C1147.1 35.0275 1147.03 34.977 1146.95 34.9434C1146.87 34.9097 1146.79 34.8939 1146.71 34.897H1144.57C1144.49 34.8948 1144.41 34.9137 1144.34 34.9519C1144.27 34.9901 1144.21 35.046 1144.17 35.1138C1144.09 35.215 1144.06 35.3422 1144.08 35.4676L1144.51 38.4801C1144.53 38.6252 1144.6 38.7598 1144.71 38.868C1144.76 38.9305 1144.83 38.9802 1144.91 39.0137C1144.99 39.0471 1145.07 39.0636 1145.16 39.062H1147.3C1147.38 39.0631 1147.46 39.0436 1147.53 39.0055C1147.6 38.9675 1147.66 38.9122 1147.7 38.8452C1147.74 38.7942 1147.77 38.7349 1147.78 38.6717C1147.79 38.6085 1147.79 38.543 1147.78 38.4801L1147.36 35.4676ZM1138.72 40.032L1138.51 38.5485H1128.19C1128.03 38.5573 1127.87 38.6085 1127.73 38.6969C1127.65 38.7427 1127.57 38.8062 1127.52 38.8831C1127.46 38.9599 1127.42 39.0482 1127.4 39.1419L1126.54 41.9718C1126.5 42.0426 1126.49 42.1219 1126.5 42.1993C1126.51 42.2767 1126.55 42.3486 1126.61 42.4055C1126.7 42.4959 1126.83 42.5487 1126.97 42.5538H1139.51L1136.43 52.6641H1123.92C1123.76 52.6677 1123.6 52.7151 1123.46 52.8009C1123.3 52.9035 1123.18 53.0619 1123.13 53.246L1122.25 56.076C1122.22 56.1486 1122.22 56.2275 1122.23 56.304C1122.25 56.3805 1122.28 56.4516 1122.33 56.5095C1122.43 56.6061 1122.56 56.6632 1122.69 56.6693H1139.13C1139.3 56.655 1139.46 56.6001 1139.61 56.5095C1139.78 56.4149 1139.91 56.26 1139.97 56.076L1144.69 40.6025H1139.37C1139.29 40.6042 1139.21 40.5888 1139.13 40.5574C1139.05 40.526 1138.98 40.4792 1138.92 40.4199C1138.82 40.3165 1138.76 40.1909 1138.72 40.0548V40.032Z" fill="white"/>
</g>
<defs>
<clipPath id="clip0_10_944">
<rect width="40" height="40" fill="white" transform="translate(4.00006 29)"/>
</clipPath>
<clipPath id="clip1_10_944">
<rect width="40" height="28" fill="white" transform="translate(188 34.8468)"/>
</clipPath>
<clipPath id="clip2_10_944">
<rect width="55" height="30" fill="white" transform="translate(365 33.8468)"/>
</clipPath>
<clipPath id="clip3_10_944">
<rect width="47" height="29" fill="white" transform="translate(553 34.8468)"/>
</clipPath>
<clipPath id="clip4_10_944">
<rect width="41" height="27" fill="white" transform="translate(740 35.8468)"/>
</clipPath>
<clipPath id="clip5_10_944">
<rect width="52" height="20" fill="white" transform="translate(918 38.8468)"/>
</clipPath>
<clipPath id="clip6_10_944">
<rect width="55" height="30" fill="white" transform="translate(1101 33.8468)"/>
</clipPath>
</defs>
</svg>
